<?xml version="1.0" encoding="UTF-8"?>
<svg id="Layer_2" xmlns="http://www.w3.org/2000/svg" version="1.1" viewBox="0 0 2021 2046">
  <!-- Generator: Adobe Illustrator 29.3.1, SVG Export Plug-In . SVG Version: 2.1.0 Build 151)  -->
  <path d="M664.35,289.19h10.28s.22.1.24.16l-.06.4-17.79,23.16c-.31.15-.55-.01-.45-.35,1.33-4.99,3.4-10.02,4.63-15.01.06-.24.14-.41.05-.66h-10.28c-.31,0-.28-.4-.13-.6l17.74-23.12c.31-.15.55.01.45.35l-4.73,15.28.05.38Z"/>
  <path d="M1088.67,474.55h10.28s.22.1.24.16l-.06.4-17.79,23.16c-.31.15-.55-.01-.45-.35,1.33-4.99,3.4-10.02,4.63-15.01.06-.24.14-.41.05-.66h-10.28c-.31,0-.28-.4-.13-.6l17.74-23.12c.31-.15.55.01.45.35l-4.73,15.28.05.38Z"/>
  <path d="M1002.04,738.52h10.28s.22.1.24.16l-.06.4-17.79,23.16c-.31.15-.55-.01-.45-.35,1.33-4.99,3.4-10.02,4.63-15.01.06-.24.14-.41.05-.66h-10.28c-.31,0-.28-.4-.13-.6l17.74-23.12c.31-.15.55.01.45.35l-4.73,15.28.05.38Z"/>
  <path d="M1498.29,751.55h10.28s.22.1.24.16l-.06.4-17.79,23.16c-.31.15-.55-.01-.45-.35,1.33-4.99,3.4-10.02,4.63-15.01.06-.24.14-.41.05-.66h-10.28c-.31,0-.28-.4-.13-.6l17.74-23.12c.31-.15.55.01.45.35l-4.73,15.28.05.38Z"/>
  <path d="M1922.61,944.9h10.28s.22.1.24.16l-.06.4-17.79,23.16c-.31.15-.55-.01-.45-.35,1.33-4.99,3.4-10.02,4.63-15.01.06-.24.14-.41.05-.66h-10.28c-.31,0-.28-.4-.13-.6l17.74-23.12c.31-.15.55.01.45.35l-4.73,15.28.05.38Z"/>
  <path d="M17.73,751.55h10.28s.22.1.24.16l-.06.4-17.79,23.16c-.31.15-.55-.01-.45-.35,1.33-4.99,3.4-10.02,4.63-15.01.06-.24.14-.41.05-.66H4.35c-.31,0-.28-.4-.13-.6l17.74-23.12c.31-.15.55.01.45.35l-4.73,15.28.05.38Z"/>
  <path d="M343.99,1203.9h10.28s.22.1.24.16l-.06.4-17.79,23.16c-.31.15-.55-.01-.45-.35,1.33-4.99,3.4-10.02,4.63-15.01.06-.24.14-.41.05-.66h-10.28c-.31,0-.28-.4-.13-.6l17.74-23.12c.31-.15.55.01.45.35l-4.73,15.28.05.38Z"/>
  <path d="M835.65,1110.55h10.28s.22.1.24.16l-.06.4-17.79,23.16c-.31.15-.55-.01-.45-.35,1.33-4.99,3.4-10.02,4.63-15.01.06-.24.14-.41.05-.66h-10.28c-.31,0-.28-.4-.13-.6l17.74-23.12c.31-.15.55.01.45.35l-4.73,15.28.05.38Z"/>
  <path d="M1173.35,1562.9h10.28s.22.1.24.16l-.06.4-17.79,23.16c-.31.15-.55-.01-.45-.35,1.33-4.99,3.4-10.02,4.63-15.01.06-.24.14-.41.05-.66h-10.28c-.31,0-.28-.4-.13-.6l17.74-23.12c.31-.15.55.01.45.35l-4.73,15.28.05.38Z"/>
  <path d="M518.67,2000.87h10.28s.22.1.24.16l-.06.4-17.79,23.16c-.31.15-.55-.01-.45-.35,1.33-4.99,3.4-10.02,4.63-15.01.06-.24.14-.41.05-.66h-10.28c-.31,0-.28-.4-.13-.6l17.74-23.12c.31-.15.55.01.45.35l-4.73,15.28.05.38Z"/>
  <path d="M1998.22,20.55h10.28s.22.1.24.16l-.06.4-17.79,23.16c-.31.15-.55-.01-.45-.35,1.33-4.99,3.4-10.02,4.63-15.01.06-.24.14-.41.05-.66h-10.28c-.31,0-.28-.4-.13-.6l17.74-23.12c.31-.15.55.01.45.35l-4.73,15.28.05.38Z"/>
</svg>