<?xml version="1.0" encoding="UTF-8"?>
<svg xmlns="http://www.w3.org/2000/svg" version="1.1" viewBox="0 0 792 994">
  <!-- Generator: Adobe Illustrator 29.3.1, SVG Export Plug-In . SVG Version: 2.1.0 Build 151)  -->
  <defs>
    <style>
      .st0 {
        fill: #ff8b00;
      }

      .st1 {
        fill: #1979ba;
      }
    </style>
  </defs>
  <g id="Layer_2">
    <path class="st0" d="M347.87,503.73h10.28s.22.1.24.16l-.06.4-17.79,23.16c-.31.15-.55-.01-.45-.35,1.33-4.99,3.4-10.02,4.63-15.01.06-.24.14-.41.05-.66h-10.28c-.31,0-.28-.4-.13-.6l17.74-23.12c.31-.15.55.01.45.35l-4.73,15.28.05.38Z"/>
    <path class="st0" d="M377.63,524.38h10.28s.22.1.24.16l-.06.4-17.79,23.16c-.31.15-.55-.01-.45-.35,1.33-4.99,3.4-10.02,4.63-15.01.06-.24.14-.41.05-.66h-10.28c-.31,0-.28-.4-.13-.6l17.74-23.12c.31-.15.55.01.45.35l-4.73,15.28.05.38Z"/>
    <path class="st0" d="M411.42,472.71h10.28s.22.1.24.16l-.06.4-17.79,23.16c-.31.15-.55-.01-.45-.35,1.33-4.99,3.4-10.02,4.63-15.01.06-.24.14-.41.05-.66h-10.28c-.31,0-.28-.4-.13-.6l17.74-23.12c.31-.15.55.01.45.35l-4.73,15.28.05.38Z"/>
    <path class="st0" d="M457.24,347.39h10.28s.22.1.24.16l-.06.4-17.79,23.16c-.31.15-.55-.01-.45-.35,1.33-4.99,3.4-10.02,4.63-15.01.06-.24.14-.41.05-.66h-10.28c-.31,0-.28-.4-.13-.6l17.74-23.12c.31-.15.55.01.45.35l-4.73,15.28.05.38Z"/>
    <path class="st0" d="M429.97,276.65h10.28s.22.1.24.16l-.06.4-17.79,23.16c-.31.15-.55-.01-.45-.35,1.33-4.99,3.4-10.02,4.63-15.01.06-.24.14-.41.05-.66h-10.28c-.31,0-.28-.4-.13-.6l17.74-23.12c.31-.15.55.01.45.35l-4.73,15.28.05.38Z"/>
    <path class="st0" d="M453.74,238.84h10.28s.22.1.24.16l-.06.4-17.79,23.16c-.31.15-.55-.01-.45-.35,1.33-4.99,3.4-10.02,4.63-15.01.06-.24.14-.41.05-.66h-10.28c-.31,0-.28-.4-.13-.6l17.74-23.12c.31-.15.55.01.45.35l-4.73,15.28.05.38Z"/>
    <path class="st0" d="M417.9,205.39h10.28s.22.1.24.16l-.06.4-17.79,23.16c-.31.15-.55-.01-.45-.35,1.33-4.99,3.4-10.02,4.63-15.01.06-.24.14-.41.05-.66h-10.28c-.31,0-.28-.4-.13-.6l17.74-23.12c.31-.15.55.01.45.35l-4.73,15.28.05.38Z"/>
    <path class="st0" d="M361.88,184.15h10.28s.22.1.24.16l-.06.4-17.79,23.16c-.31.15-.55-.01-.45-.35,1.33-4.99,3.4-10.02,4.63-15.01.06-.24.14-.41.05-.66h-10.28c-.31,0-.28-.4-.13-.6l17.74-23.12c.31-.15.55.01.45.35l-4.73,15.28.05.38Z"/>
    <path class="st0" d="M332.09,190.9h10.28s.22.1.24.16l-.06.4-17.79,23.16c-.31.15-.55-.01-.45-.35,1.33-4.99,3.4-10.02,4.63-15.01.06-.24.14-.41.05-.66h-10.28c-.31,0-.28-.4-.13-.6l17.74-23.12c.31-.15.55.01.45.35l-4.73,15.28.05.38Z"/>
    <path class="st0" d="M357.74,243.08h10.28s.22.1.24.16l-.06.4-17.79,23.16c-.31.15-.55-.01-.45-.35,1.33-4.99,3.4-10.02,4.63-15.01.06-.24.14-.41.05-.66h-10.28c-.31,0-.28-.4-.13-.6l17.74-23.12c.31-.15.55.01.45.35l-4.73,15.28.05.38Z"/>
    <path class="st0" d="M324.04,328.07h10.28s.22.1.24.16l-.06.4-17.79,23.16c-.31.15-.55-.01-.45-.35,1.33-4.99,3.4-10.02,4.63-15.01.06-.24.14-.41.05-.66h-10.28c-.31,0-.28-.4-.13-.6l17.74-23.12c.31-.15.55.01.45.35l-4.73,15.28.05.38Z"/>
    <path class="st0" d="M292.19,242.21h10.28s.22.1.24.16l-.06.4-17.79,23.16c-.31.15-.55-.01-.45-.35,1.33-4.99,3.4-10.02,4.63-15.01.06-.24.14-.41.05-.66h-10.28c-.31,0-.28-.4-.13-.6l17.74-23.12c.31-.15.55.01.45.35l-4.73,15.28.05.38Z"/>
    <path class="st0" d="M258.1,276.65h10.28s.22.1.24.16l-.06.4-17.79,23.16c-.31.15-.55-.01-.45-.35,1.33-4.99,3.4-10.02,4.63-15.01.06-.24.14-.41.05-.66h-10.28c-.31,0-.28-.4-.13-.6l17.74-23.12c.31-.15.55.01.45.35l-4.73,15.28.05.38Z"/>
    <path class="st0" d="M236.4,312.77h10.28s.22.1.24.16l-.06.4-17.79,23.16c-.31.15-.55-.01-.45-.35,1.33-4.99,3.4-10.02,4.63-15.01.06-.24.14-.41.05-.66h-10.28c-.31,0-.28-.4-.13-.6l17.74-23.12c.31-.15.55.01.45.35l-4.73,15.28.05.38Z"/>
    <path class="st0" d="M281.65,352.06h10.28s.22.1.24.16l-.06.4-17.79,23.16c-.31.15-.55-.01-.45-.35,1.33-4.99,3.4-10.02,4.63-15.01.06-.24.14-.41.05-.66h-10.28c-.31,0-.28-.4-.13-.6l17.74-23.12c.31-.15.55.01.45.35l-4.73,15.28.05.38Z"/>
    <path class="st0" d="M308.53,400.19h10.28s.22.1.24.16l-.06.4-17.79,23.16c-.31.15-.55-.01-.45-.35,1.33-4.99,3.4-10.02,4.63-15.01.06-.24.14-.41.05-.66h-10.28c-.31,0-.28-.4-.13-.6l17.74-23.12c.31-.15.55.01.45.35l-4.73,15.28.05.38Z"/>
    <path class="st0" d="M265.39,433.12h10.28s.22.1.24.16l-.06.4-17.79,23.16c-.31.15-.55-.01-.45-.35,1.33-4.99,3.4-10.02,4.63-15.01.06-.24.14-.41.05-.66h-10.28c-.31,0-.28-.4-.13-.6l17.74-23.12c.31-.15.55.01.45.35l-4.73,15.28.05.38Z"/>
    <path class="st0" d="M224.11,470.93h10.28s.22.1.24.16l-.06.4-17.79,23.16c-.31.15-.55-.01-.45-.35,1.33-4.99,3.4-10.02,4.63-15.01.06-.24.14-.41.05-.66h-10.28c-.31,0-.28-.4-.13-.6l17.74-23.12c.31-.15.55.01.45.35l-4.73,15.28.05.38Z"/>
    <path class="st0" d="M293.73,504.46h10.28s.22.1.24.16l-.06.4-17.79,23.16c-.31.15-.55-.01-.45-.35,1.33-4.99,3.4-10.02,4.63-15.01.06-.24.14-.41.05-.66h-10.28c-.31,0-.28-.4-.13-.6l17.74-23.12c.31-.15.55.01.45.35l-4.73,15.28.05.38Z"/>
    <path class="st0" d="M327.46,447.11h10.28s.22.1.24.16l-.06.4-17.79,23.16c-.31.15-.55-.01-.45-.35,1.33-4.99,3.4-10.02,4.63-15.01.06-.24.14-.41.05-.66h-10.28c-.31,0-.28-.4-.13-.6l17.74-23.12c.31-.15.55.01.45.35l-4.73,15.28.05.38Z"/>
    <path class="st0" d="M372.31,394.29h10.28s.22.1.24.16l-.06.4-17.79,23.16c-.31.15-.55-.01-.45-.35,1.33-4.99,3.4-10.02,4.63-15.01.06-.24.14-.41.05-.66h-10.28c-.31,0-.28-.4-.13-.6l17.74-23.12c.31-.15.55.01.45.35l-4.73,15.28.05.38Z"/>
    <path class="st0" d="M498.02,299.84h10.28s.22.1.24.16l-.06.4-17.79,23.16c-.31.15-.55-.01-.45-.35,1.33-4.99,3.4-10.02,4.63-15.01.06-.24.14-.41.05-.66h-10.28c-.31,0-.28-.4-.13-.6l17.74-23.12c.31-.15.55.01.45.35l-4.73,15.28.05.38Z"/>
    <path class="st0" d="M550.44,229.84h10.28s.22.1.24.16l-.06.4-17.79,23.16c-.31.15-.55-.01-.45-.35,1.33-4.99,3.4-10.02,4.63-15.01.06-.24.14-.41.05-.66h-10.28c-.31,0-.28-.4-.13-.6l17.74-23.12c.31-.15.55.01.45.35l-4.73,15.28.05.38Z"/>
    <path class="st0" d="M506.43,134.29h10.28s.22.1.24.16l-.06.4-17.79,23.16c-.31.15-.55-.01-.45-.35,1.33-4.99,3.4-10.02,4.63-15.01.06-.24.14-.41.05-.66h-10.28c-.31,0-.28-.4-.13-.6l17.74-23.12c.31-.15.55.01.45.35l-4.73,15.28.05.38Z"/>
    <path class="st0" d="M471.68,160.79h10.28s.22.1.24.16l-.06.4-17.79,23.16c-.31.15-.55-.01-.45-.35,1.33-4.99,3.4-10.02,4.63-15.01.06-.24.14-.41.05-.66h-10.28c-.31,0-.28-.4-.13-.6l17.74-23.12c.31-.15.55.01.45.35l-4.73,15.28.05.38Z"/>
    <path class="st0" d="M467.43,88.89h10.28s.22.1.24.16l-.06.4-17.79,23.16c-.31.15-.55-.01-.45-.35,1.33-4.99,3.4-10.02,4.63-15.01.06-.24.14-.41.05-.66h-10.28c-.31,0-.28-.4-.13-.6l17.74-23.12c.31-.15.55.01.45.35l-4.73,15.28.05.38Z"/>
    <path class="st0" d="M427.74,92.26h10.28s.22.1.24.16l-.06.4-17.79,23.16c-.31.15-.55-.01-.45-.35,1.33-4.99,3.4-10.02,4.63-15.01.06-.24.14-.41.05-.66h-10.28c-.31,0-.28-.4-.13-.6l17.74-23.12c.31-.15.55.01.45.35l-4.73,15.28.05.38Z"/>
    <path class="st0" d="M389.71,96.48h10.28s.22.1.24.16l-.06.4-17.79,23.16c-.31.15-.55-.01-.45-.35,1.33-4.99,3.4-10.02,4.63-15.01.06-.24.14-.41.05-.66h-10.28c-.31,0-.28-.4-.13-.6l17.74-23.12c.31-.15.55.01.45.35l-4.73,15.28.05.38Z"/>
    <path class="st0" d="M330.83,74.91h10.28s.22.1.24.16l-.06.4-17.79,23.16c-.31.15-.55-.01-.45-.35,1.33-4.99,3.4-10.02,4.63-15.01.06-.24.14-.41.05-.66h-10.28c-.31,0-.28-.4-.13-.6l17.74-23.12c.31-.15.55.01.45.35l-4.73,15.28.05.38Z"/>
    <path class="st0" d="M241.43,154.61h10.28s.22.1.24.16l-.06.4-17.79,23.16c-.31.15-.55-.01-.45-.35,1.33-4.99,3.4-10.02,4.63-15.01.06-.24.14-.41.05-.66h-10.28c-.31,0-.28-.4-.13-.6l17.74-23.12c.31-.15.55.01.45.35l-4.73,15.28.05.38Z"/>
    <path class="st0" d="M192.19,251.26h10.28s.22.1.24.16l-.06.4-17.79,23.16c-.31.15-.55-.01-.45-.35,1.33-4.99,3.4-10.02,4.63-15.01.06-.24.14-.41.05-.66h-10.28c-.31,0-.28-.4-.13-.6l17.74-23.12c.31-.15.55.01.45.35l-4.73,15.28.05.38Z"/>
    <path class="st0" d="M176.19,185.47h10.28s.22.1.24.16l-.06.4-17.79,23.16c-.31.15-.55-.01-.45-.35,1.33-4.99,3.4-10.02,4.63-15.01.06-.24.14-.41.05-.66h-10.28c-.31,0-.28-.4-.13-.6l17.74-23.12c.31-.15.55.01.45.35l-4.73,15.28.05.38Z"/>
    <path class="st0" d="M147.19,224.22h10.28s.22.1.24.16l-.06.4-17.79,23.16c-.31.15-.55-.01-.45-.35,1.33-4.99,3.4-10.02,4.63-15.01.06-.24.14-.41.05-.66h-10.28c-.31,0-.28-.4-.13-.6l17.74-23.12c.31-.15.55.01.45.35l-4.73,15.28.05.38Z"/>
    <path class="st0" d="M179.76,314.96h10.28s.22.1.24.16l-.06.4-17.79,23.16c-.31.15-.55-.01-.45-.35,1.33-4.99,3.4-10.02,4.63-15.01.06-.24.14-.41.05-.66h-10.28c-.31,0-.28-.4-.13-.6l17.74-23.12c.31-.15.55.01.45.35l-4.73,15.28.05.38Z"/>
    <path class="st0" d="M119.5,320.33h10.28s.22.1.24.16l-.06.4-17.79,23.16c-.31.15-.55-.01-.45-.35,1.33-4.99,3.4-10.02,4.63-15.01.06-.24.14-.41.05-.66h-10.28c-.31,0-.28-.4-.13-.6l17.74-23.12c.31-.15.55.01.45.35l-4.73,15.28.05.38Z"/>
    <path class="st0" d="M200.87,417.51h10.28s.22.1.24.16l-.06.4-17.79,23.16c-.31.15-.55-.01-.45-.35,1.33-4.99,3.4-10.02,4.63-15.01.06-.24.14-.41.05-.66h-10.28c-.31,0-.28-.4-.13-.6l17.74-23.12c.31-.15.55.01.45.35l-4.73,15.28.05.38Z"/>
    <path class="st0" d="M162.46,441.78h10.28s.22.1.24.16l-.06.4-17.79,23.16c-.31.15-.55-.01-.45-.35,1.33-4.99,3.4-10.02,4.63-15.01.06-.24.14-.41.05-.66h-10.28c-.31,0-.28-.4-.13-.6l17.74-23.12c.31-.15.55.01.45.35l-4.73,15.28.05.38Z"/>
    <path class="st0" d="M128.07,470.93h10.28s.22.1.24.16l-.06.4-17.79,23.16c-.31.15-.55-.01-.45-.35,1.33-4.99,3.4-10.02,4.63-15.01.06-.24.14-.41.05-.66h-10.28c-.31,0-.28-.4-.13-.6l17.74-23.12c.31-.15.55.01.45.35l-4.73,15.28.05.38Z"/>
    <path class="st0" d="M129.37,535.4h10.28s.22.1.24.16l-.06.4-17.79,23.16c-.31.15-.55-.01-.45-.35,1.33-4.99,3.4-10.02,4.63-15.01.06-.24.14-.41.05-.66h-10.28c-.31,0-.28-.4-.13-.6l17.74-23.12c.31-.15.55.01.45.35l-4.73,15.28.05.38Z"/>
    <path class="st0" d="M175.07,605.85h10.28s.22.1.24.16l-.06.4-17.79,23.16c-.31.15-.55-.01-.45-.35,1.33-4.99,3.4-10.02,4.63-15.01.06-.24.14-.41.05-.66h-10.28c-.31,0-.28-.4-.13-.6l17.74-23.12c.31-.15.55.01.45.35l-4.73,15.28.05.38Z"/>
    <path class="st0" d="M288.82,722.18h10.28s.22.1.24.16l-.06.4-17.79,23.16c-.31.15-.55-.01-.45-.35,1.33-4.99,3.4-10.02,4.63-15.01.06-.24.14-.41.05-.66h-10.28c-.31,0-.28-.4-.13-.6l17.74-23.12c.31-.15.55.01.45.35l-4.73,15.28.05.38Z"/>
    <path class="st0" d="M315.38,607.85h10.28s.22.1.24.16l-.06.4-17.79,23.16c-.31.15-.55-.01-.45-.35,1.33-4.99,3.4-10.02,4.63-15.01.06-.24.14-.41.05-.66h-10.28c-.31,0-.28-.4-.13-.6l17.74-23.12c.31-.15.55.01.45.35l-4.73,15.28.05.38Z"/>
    <path class="st0" d="M339.53,665.35h10.28s.22.1.24.16l-.06.4-17.79,23.16c-.31.15-.55-.01-.45-.35,1.33-4.99,3.4-10.02,4.63-15.01.06-.24.14-.41.05-.66h-10.28c-.31,0-.28-.4-.13-.6l17.74-23.12c.31-.15.55.01.45.35l-4.73,15.28.05.38Z"/>
    <path class="st0" d="M233.99,623.27h10.28s.22.1.24.16l-.06.4-17.79,23.16c-.31.15-.55-.01-.45-.35,1.33-4.99,3.4-10.02,4.63-15.01.06-.24.14-.41.05-.66h-10.28c-.31,0-.28-.4-.13-.6l17.74-23.12c.31-.15.55.01.45.35l-4.73,15.28.05.38Z"/>
    <path class="st0" d="M375.05,652.34h10.28s.22.1.24.16l-.06.4-17.79,23.16c-.31.15-.55-.01-.45-.35,1.33-4.99,3.4-10.02,4.63-15.01.06-.24.14-.41.05-.66h-10.28c-.31,0-.28-.4-.13-.6l17.74-23.12c.31-.15.55.01.45.35l-4.73,15.28.05.38Z"/>
    <path class="st0" d="M390.62,596.09h10.28s.22.1.24.16l-.06.4-17.79,23.16c-.31.15-.55-.01-.45-.35,1.33-4.99,3.4-10.02,4.63-15.01.06-.24.14-.41.05-.66h-10.28c-.31,0-.28-.4-.13-.6l17.74-23.12c.31-.15.55.01.45.35l-4.73,15.28.05.38Z"/>
    <path class="st0" d="M426.92,559.08h10.28s.22.1.24.16l-.06.4-17.79,23.16c-.31.15-.55-.01-.45-.35,1.33-4.99,3.4-10.02,4.63-15.01.06-.24.14-.41.05-.66h-10.28c-.31,0-.28-.4-.13-.6l17.74-23.12c.31-.15.55.01.45.35l-4.73,15.28.05.38Z"/>
    <path class="st0" d="M465.87,559.08h10.28s.22.1.24.16l-.06.4-17.79,23.16c-.31.15-.55-.01-.45-.35,1.33-4.99,3.4-10.02,4.63-15.01.06-.24.14-.41.05-.66h-10.28c-.31,0-.28-.4-.13-.6l17.74-23.12c.31-.15.55.01.45.35l-4.73,15.28.05.38Z"/>
    <path class="st0" d="M513.06,516.3h10.28s.22.1.24.16l-.06.4-17.79,23.16c-.31.15-.55-.01-.45-.35,1.33-4.99,3.4-10.02,4.63-15.01.06-.24.14-.41.05-.66h-10.28c-.31,0-.28-.4-.13-.6l17.74-23.12c.31-.15.55.01.45.35l-4.73,15.28.05.38Z"/>
    <path class="st0" d="M562.52,582.62h10.28s.22.1.24.16l-.06.4-17.79,23.16c-.31.15-.55-.01-.45-.35,1.33-4.99,3.4-10.02,4.63-15.01.06-.24.14-.41.05-.66h-10.28c-.31,0-.28-.4-.13-.6l17.74-23.12c.31-.15.55.01.45.35l-4.73,15.28.05.38Z"/>
    <path class="st0" d="M505.25,612.88h10.28s.22.1.24.16l-.06.4-17.79,23.16c-.31.15-.55-.01-.45-.35,1.33-4.99,3.4-10.02,4.63-15.01.06-.24.14-.41.05-.66h-10.28c-.31,0-.28-.4-.13-.6l17.74-23.12c.31-.15.55.01.45.35l-4.73,15.28.05.38Z"/>
    <path class="st0" d="M420.31,687.02h10.28s.22.1.24.16l-.06.4-17.79,23.16c-.31.15-.55-.01-.45-.35,1.33-4.99,3.4-10.02,4.63-15.01.06-.24.14-.41.05-.66h-10.28c-.31,0-.28-.4-.13-.6l17.74-23.12c.31-.15.55.01.45.35l-4.73,15.28.05.38Z"/>
    <path class="st0" d="M447.42,722.18h10.28s.22.1.24.16l-.06.4-17.79,23.16c-.31.15-.55-.01-.45-.35,1.33-4.99,3.4-10.02,4.63-15.01.06-.24.14-.41.05-.66h-10.28c-.31,0-.28-.4-.13-.6l17.74-23.12c.31-.15.55.01.45.35l-4.73,15.28.05.38Z"/>
    <path class="st0" d="M420.31,760.67h10.28s.22.1.24.16l-.06.4-17.79,23.16c-.31.15-.55-.01-.45-.35,1.33-4.99,3.4-10.02,4.63-15.01.06-.24.14-.41.05-.66h-10.28c-.31,0-.28-.4-.13-.6l17.74-23.12c.31-.15.55.01.45.35l-4.73,15.28.05.38Z"/>
    <path class="st0" d="M357.74,786.74h10.28s.22.1.24.16l-.06.4-17.79,23.16c-.31.15-.55-.01-.45-.35,1.33-4.99,3.4-10.02,4.63-15.01.06-.24.14-.41.05-.66h-10.28c-.31,0-.28-.4-.13-.6l17.74-23.12c.31-.15.55.01.45.35l-4.73,15.28.05.38Z"/>
    <path class="st0" d="M355.13,712.4h10.28s.22.1.24.16l-.06.4-17.79,23.16c-.31.15-.55-.01-.45-.35,1.33-4.99,3.4-10.02,4.63-15.01.06-.24.14-.41.05-.66h-10.28c-.31,0-.28-.4-.13-.6l17.74-23.12c.31-.15.55.01.45.35l-4.73,15.28.05.38Z"/>
    <path class="st0" d="M325.34,815.98h10.28s.22.1.24.16l-.06.4-17.79,23.16c-.31.15-.55-.01-.45-.35,1.33-4.99,3.4-10.02,4.63-15.01.06-.24.14-.41.05-.66h-10.28c-.31,0-.28-.4-.13-.6l17.74-23.12c.31-.15.55.01.45.35l-4.73,15.28.05.38Z"/>
    <path class="st0" d="M280.75,777.45h10.28s.22.1.24.16l-.06.4-17.79,23.16c-.31.15-.55-.01-.45-.35,1.33-4.99,3.4-10.02,4.63-15.01.06-.24.14-.41.05-.66h-10.28c-.31,0-.28-.4-.13-.6l17.74-23.12c.31-.15.55.01.45.35l-4.73,15.28.05.38Z"/>
    <path class="st0" d="M233.99,783.25h10.28s.22.1.24.16l-.06.4-17.79,23.16c-.31.15-.55-.01-.45-.35,1.33-4.99,3.4-10.02,4.63-15.01.06-.24.14-.41.05-.66h-10.28c-.31,0-.28-.4-.13-.6l17.74-23.12c.31-.15.55.01.45.35l-4.73,15.28.05.38Z"/>
    <path class="st0" d="M270.09,850.4h10.28s.22.1.24.16l-.06.4-17.79,23.16c-.31.15-.55-.01-.45-.35,1.33-4.99,3.4-10.02,4.63-15.01.06-.24.14-.41.05-.66h-10.28c-.31,0-.28-.4-.13-.6l17.74-23.12c.31-.15.55.01.45.35l-4.73,15.28.05.38Z"/>
    <path class="st0" d="M224.32,896.27h10.28s.22.1.24.16l-.06.4-17.79,23.16c-.31.15-.55-.01-.45-.35,1.33-4.99,3.4-10.02,4.63-15.01.06-.24.14-.41.05-.66h-10.28c-.31,0-.28-.4-.13-.6l17.74-23.12c.31-.15.55.01.45.35l-4.73,15.28.05.38Z"/>
    <path class="st0" d="M224.32,950.51h10.28s.22.1.24.16l-.06.4-17.79,23.16c-.31.15-.55-.01-.45-.35,1.33-4.99,3.4-10.02,4.63-15.01.06-.24.14-.41.05-.66h-10.28c-.31,0-.28-.4-.13-.6l17.74-23.12c.31-.15.55.01.45.35l-4.73,15.28.05.38Z"/>
    <path class="st0" d="M275.02,962.24h10.28s.22.1.24.16l-.06.4-17.79,23.16c-.31.15-.55-.01-.45-.35,1.33-4.99,3.4-10.02,4.63-15.01.06-.24.14-.41.05-.66h-10.28c-.31,0-.28-.4-.13-.6l17.74-23.12c.31-.15.55.01.45.35l-4.73,15.28.05.38Z"/>
    <path class="st0" d="M373.37,870.88h10.28s.22.1.24.16l-.06.4-17.79,23.16c-.31.15-.55-.01-.45-.35,1.33-4.99,3.4-10.02,4.63-15.01.06-.24.14-.41.05-.66h-10.28c-.31,0-.28-.4-.13-.6l17.74-23.12c.31-.15.55.01.45.35l-4.73,15.28.05.38Z"/>
    <path class="st0" d="M412.66,826.54h10.28s.22.1.24.16l-.06.4-17.79,23.16c-.31.15-.55-.01-.45-.35,1.33-4.99,3.4-10.02,4.63-15.01.06-.24.14-.41.05-.66h-10.28c-.31,0-.28-.4-.13-.6l17.74-23.12c.31-.15.55.01.45.35l-4.73,15.28.05.38Z"/>
    <path class="st0" d="M456.62,828.54h10.28s.22.1.24.16l-.06.4-17.79,23.16c-.31.15-.55-.01-.45-.35,1.33-4.99,3.4-10.02,4.63-15.01.06-.24.14-.41.05-.66h-10.28c-.31,0-.28-.4-.13-.6l17.74-23.12c.31-.15.55.01.45.35l-4.73,15.28.05.38Z"/>
    <path class="st0" d="M493.41,780.59h10.28s.22.1.24.16l-.06.4-17.79,23.16c-.31.15-.55-.01-.45-.35,1.33-4.99,3.4-10.02,4.63-15.01.06-.24.14-.41.05-.66h-10.28c-.31,0-.28-.4-.13-.6l17.74-23.12c.31-.15.55.01.45.35l-4.73,15.28.05.38Z"/>
    <path class="st0" d="M514.49,722.58h10.28s.22.1.24.16l-.06.4-17.79,23.16c-.31.15-.55-.01-.45-.35,1.33-4.99,3.4-10.02,4.63-15.01.06-.24.14-.41.05-.66h-10.28c-.31,0-.28-.4-.13-.6l17.74-23.12c.31-.15.55.01.45.35l-4.73,15.28.05.38Z"/>
    <path class="st0" d="M548.02,704.53h10.28s.22.1.24.16l-.06.4-17.79,23.16c-.31.15-.55-.01-.45-.35,1.33-4.99,3.4-10.02,4.63-15.01.06-.24.14-.41.05-.66h-10.28c-.31,0-.28-.4-.13-.6l17.74-23.12c.31-.15.55.01.45.35l-4.73,15.28.05.38Z"/>
    <path class="st0" d="M603.59,531.69h10.28s.22.1.24.16l-.06.4-17.79,23.16c-.31.15-.55-.01-.45-.35,1.33-4.99,3.4-10.02,4.63-15.01.06-.24.14-.41.05-.66h-10.28c-.31,0-.28-.4-.13-.6l17.74-23.12c.31-.15.55.01.45.35l-4.73,15.28.05.38Z"/>
    <path class="st0" d="M681.11,665.35h10.28s.22.1.24.16l-.06.4-17.79,23.16c-.31.15-.55-.01-.45-.35,1.33-4.99,3.4-10.02,4.63-15.01.06-.24.14-.41.05-.66h-10.28c-.31,0-.28-.4-.13-.6l17.74-23.12c.31-.15.55.01.45.35l-4.73,15.28.05.38Z"/>
    <path class="st0" d="M655.62,695.08h10.28s.22.1.24.16l-.06.4-17.79,23.16c-.31.15-.55-.01-.45-.35,1.33-4.99,3.4-10.02,4.63-15.01.06-.24.14-.41.05-.66h-10.28c-.31,0-.28-.4-.13-.6l17.74-23.12c.31-.15.55.01.45.35l-4.73,15.28.05.38Z"/>
    <path class="st0" d="M638.48,772.47h10.28s.22.1.24.16l-.06.4-17.79,23.16c-.31.15-.55-.01-.45-.35,1.33-4.99,3.4-10.02,4.63-15.01.06-.24.14-.41.05-.66h-10.28c-.31,0-.28-.4-.13-.6l17.74-23.12c.31-.15.55.01.45.35l-4.73,15.28.05.38Z"/>
    <path class="st0" d="M597.08,712.4h10.28s.22.1.24.16l-.06.4-17.79,23.16c-.31.15-.55-.01-.45-.35,1.33-4.99,3.4-10.02,4.63-15.01.06-.24.14-.41.05-.66h-10.28c-.31,0-.28-.4-.13-.6l17.74-23.12c.31-.15.55.01.45.35l-4.73,15.28.05.38Z"/>
    <path class="st0" d="M494.97,864.35h10.28s.22.1.24.16l-.06.4-17.79,23.16c-.31.15-.55-.01-.45-.35,1.33-4.99,3.4-10.02,4.63-15.01.06-.24.14-.41.05-.66h-10.28c-.31,0-.28-.4-.13-.6l17.74-23.12c.31-.15.55.01.45.35l-4.73,15.28.05.38Z"/>
    <path class="st0" d="M451.92,896.27h10.28s.22.1.24.16l-.06.4-17.79,23.16c-.31.15-.55-.01-.45-.35,1.33-4.99,3.4-10.02,4.63-15.01.06-.24.14-.41.05-.66h-10.28c-.31,0-.28-.4-.13-.6l17.74-23.12c.31-.15.55.01.45.35l-4.73,15.28.05.38Z"/>
    <path class="st0" d="M405.83,939.9h10.28s.22.1.24.16l-.06.4-17.79,23.16c-.31.15-.55-.01-.45-.35,1.33-4.99,3.4-10.02,4.63-15.01.06-.24.14-.41.05-.66h-10.28c-.31,0-.28-.4-.13-.6l17.74-23.12c.31-.15.55.01.45.35l-4.73,15.28.05.38Z"/>
    <path class="st0" d="M439.35,964h10.28s.22.1.24.16l-.06.4-17.79,23.16c-.31.15-.55-.01-.45-.35,1.33-4.99,3.4-10.02,4.63-15.01.06-.24.14-.41.05-.66h-10.28c-.31,0-.28-.4-.13-.6l17.74-23.12c.31-.15.55.01.45.35l-4.73,15.28.05.38Z"/>
    <path class="st0" d="M542.7,959.82h10.28s.22.1.24.16l-.06.4-17.79,23.16c-.31.15-.55-.01-.45-.35,1.33-4.99,3.4-10.02,4.63-15.01.06-.24.14-.41.05-.66h-10.28c-.31,0-.28-.4-.13-.6l17.74-23.12c.31-.15.55.01.45.35l-4.73,15.28.05.38Z"/>
    <path class="st0" d="M611.66,959.82h10.28s.22.1.24.16l-.06.4-17.79,23.16c-.31.15-.55-.01-.45-.35,1.33-4.99,3.4-10.02,4.63-15.01.06-.24.14-.41.05-.66h-10.28c-.31,0-.28-.4-.13-.6l17.74-23.12c.31-.15.55.01.45.35l-4.73,15.28.05.38Z"/>
    <path class="st0" d="M625.87,887.64h10.28s.22.1.24.16l-.06.4-17.79,23.16c-.31.15-.55-.01-.45-.35,1.33-4.99,3.4-10.02,4.63-15.01.06-.24.14-.41.05-.66h-10.28c-.31,0-.28-.4-.13-.6l17.74-23.12c.31-.15.55.01.45.35l-4.73,15.28.05.38Z"/>
    <path class="st0" d="M641.86,841.97h10.28s.22.1.24.16l-.06.4-17.79,23.16c-.31.15-.55-.01-.45-.35,1.33-4.99,3.4-10.02,4.63-15.01.06-.24.14-.41.05-.66h-10.28c-.31,0-.28-.4-.13-.6l17.74-23.12c.31-.15.55.01.45.35l-4.73,15.28.05.38Z"/>
    <path class="st0" d="M683.54,809.14h10.28s.22.1.24.16l-.06.4-17.79,23.16c-.31.15-.55-.01-.45-.35,1.33-4.99,3.4-10.02,4.63-15.01.06-.24.14-.41.05-.66h-10.28c-.31,0-.28-.4-.13-.6l17.74-23.12c.31-.15.55.01.45.35l-4.73,15.28.05.38Z"/>
    <path class="st0" d="M718.74,716.3h10.28s.22.1.24.16l-.06.4-17.79,23.16c-.31.15-.55-.01-.45-.35,1.33-4.99,3.4-10.02,4.63-15.01.06-.24.14-.41.05-.66h-10.28c-.31,0-.28-.4-.13-.6l17.74-23.12c.31-.15.55.01.45.35l-4.73,15.28.05.38Z"/>
    <path class="st0" d="M736.68,797.37h10.28s.22.1.24.16l-.06.4-17.79,23.16c-.31.15-.55-.01-.45-.35,1.33-4.99,3.4-10.02,4.63-15.01.06-.24.14-.41.05-.66h-10.28c-.31,0-.28-.4-.13-.6l17.74-23.12c.31-.15.55.01.45.35l-4.73,15.28.05.38Z"/>
    <path class="st0" d="M768.11,687.02h10.28s.22.1.24.16l-.06.4-17.79,23.16c-.31.15-.55-.01-.45-.35,1.33-4.99,3.4-10.02,4.63-15.01.06-.24.14-.41.05-.66h-10.28c-.31,0-.28-.4-.13-.6l17.74-23.12c.31-.15.55.01.45.35l-4.73,15.28.05.38Z"/>
    <path class="st0" d="M776.45,826.54h10.28s.22.1.24.16l-.06.4-17.79,23.16c-.31.15-.55-.01-.45-.35,1.33-4.99,3.4-10.02,4.63-15.01.06-.24.14-.41.05-.66h-10.28c-.31,0-.28-.4-.13-.6l17.74-23.12c.31-.15.55.01.45.35l-4.73,15.28.05.38Z"/>
    <path class="st0" d="M763.41,912.06h10.28s.22.1.24.16l-.06.4-17.79,23.16c-.31.15-.55-.01-.45-.35,1.33-4.99,3.4-10.02,4.63-15.01.06-.24.14-.41.05-.66h-10.28c-.31,0-.28-.4-.13-.6l17.74-23.12c.31-.15.55.01.45.35l-4.73,15.28.05.38Z"/>
    <path class="st0" d="M721.62,867.72h10.28s.22.1.24.16l-.06.4-17.79,23.16c-.31.15-.55-.01-.45-.35,1.33-4.99,3.4-10.02,4.63-15.01.06-.24.14-.41.05-.66h-10.28c-.31,0-.28-.4-.13-.6l17.74-23.12c.31-.15.55.01.45.35l-4.73,15.28.05.38Z"/>
    <path class="st0" d="M741.18,959.82h10.28s.22.1.24.16l-.06.4-17.79,23.16c-.31.15-.55-.01-.45-.35,1.33-4.99,3.4-10.02,4.63-15.01.06-.24.14-.41.05-.66h-10.28c-.31,0-.28-.4-.13-.6l17.74-23.12c.31-.15.55.01.45.35l-4.73,15.28.05.38Z"/>
    <path class="st0" d="M457.81,420.11h10.28s.22.1.24.16l-.06.4-17.79,23.16c-.31.15-.55-.01-.45-.35,1.33-4.99,3.4-10.02,4.63-15.01.06-.24.14-.41.05-.66h-10.28c-.31,0-.28-.4-.13-.6l17.74-23.12c.31-.15.55.01.45.35l-4.73,15.28.05.38Z"/>
    <path class="st0" d="M605.43,175.74h10.28s.22.1.24.16l-.06.4-17.79,23.16c-.31.15-.55-.01-.45-.35,1.33-4.99,3.4-10.02,4.63-15.01.06-.24.14-.41.05-.66h-10.28c-.31,0-.28-.4-.13-.6l17.74-23.12c.31-.15.55.01.45.35l-4.73,15.28.05.38Z"/>
    <path class="st0" d="M639.11,159.52h10.28s.22.1.24.16l-.06.4-17.79,23.16c-.31.15-.55-.01-.45-.35,1.33-4.99,3.4-10.02,4.63-15.01.06-.24.14-.41.05-.66h-10.28c-.31,0-.28-.4-.13-.6l17.74-23.12c.31-.15.55.01.45.35l-4.73,15.28.05.38Z"/>
    <path class="st0" d="M625.87,238.84h10.28s.22.1.24.16l-.06.4-17.79,23.16c-.31.15-.55-.01-.45-.35,1.33-4.99,3.4-10.02,4.63-15.01.06-.24.14-.41.05-.66h-10.28c-.31,0-.28-.4-.13-.6l17.74-23.12c.31-.15.55.01.45.35l-4.73,15.28.05.38Z"/>
    <path class="st0" d="M684.48,191.79h10.28s.22.1.24.16l-.06.4-17.79,23.16c-.31.15-.55-.01-.45-.35,1.33-4.99,3.4-10.02,4.63-15.01.06-.24.14-.41.05-.66h-10.28c-.31,0-.28-.4-.13-.6l17.74-23.12c.31-.15.55.01.45.35l-4.73,15.28.05.38Z"/>
    <path class="st0" d="M709.54,250.86h10.28s.22.1.24.16l-.06.4-17.79,23.16c-.31.15-.55-.01-.45-.35,1.33-4.99,3.4-10.02,4.63-15.01.06-.24.14-.41.05-.66h-10.28c-.31,0-.28-.4-.13-.6l17.74-23.12c.31-.15.55.01.45.35l-4.73,15.28.05.38Z"/>
    <path class="st0" d="M739.43,325.64h10.28s.22.1.24.16l-.06.4-17.79,23.16c-.31.15-.55-.01-.45-.35,1.33-4.99,3.4-10.02,4.63-15.01.06-.24.14-.41.05-.66h-10.28c-.31,0-.28-.4-.13-.6l17.74-23.12c.31-.15.55.01.45.35l-4.73,15.28.05.38Z"/>
    <path class="st0" d="M675.79,325.64h10.28s.22.1.24.16l-.06.4-17.79,23.16c-.31.15-.55-.01-.45-.35,1.33-4.99,3.4-10.02,4.63-15.01.06-.24.14-.41.05-.66h-10.28c-.31,0-.28-.4-.13-.6l17.74-23.12c.31-.15.55.01.45.35l-4.73,15.28.05.38Z"/>
    <path class="st0" d="M672.73,393.43h10.28s.22.1.24.16l-.06.4-17.79,23.16c-.31.15-.55-.01-.45-.35,1.33-4.99,3.4-10.02,4.63-15.01.06-.24.14-.41.05-.66h-10.28c-.31,0-.28-.4-.13-.6l17.74-23.12c.31-.15.55.01.45.35l-4.73,15.28.05.38Z"/>
    <path class="st0" d="M619.12,376h10.28s.22.1.24.16l-.06.4-17.79,23.16c-.31.15-.55-.01-.45-.35,1.33-4.99,3.4-10.02,4.63-15.01.06-.24.14-.41.05-.66h-10.28c-.31,0-.28-.4-.13-.6l17.74-23.12c.31-.15.55.01.45.35l-4.73,15.28.05.38Z"/>
    <path class="st0" d="M593.08,314.96h10.28s.22.1.24.16l-.06.4-17.79,23.16c-.31.15-.55-.01-.45-.35,1.33-4.99,3.4-10.02,4.63-15.01.06-.24.14-.41.05-.66h-10.28c-.31,0-.28-.4-.13-.6l17.74-23.12c.31-.15.55.01.45.35l-4.73,15.28.05.38Z"/>
    <path class="st0" d="M548.02,356.35h10.28s.22.1.24.16l-.06.4-17.79,23.16c-.31.15-.55-.01-.45-.35,1.33-4.99,3.4-10.02,4.63-15.01.06-.24.14-.41.05-.66h-10.28c-.31,0-.28-.4-.13-.6l17.74-23.12c.31-.15.55.01.45.35l-4.73,15.28.05.38Z"/>
    <path class="st0" d="M598.96,447.11h10.28s.22.1.24.16l-.06.4-17.79,23.16c-.31.15-.55-.01-.45-.35,1.33-4.99,3.4-10.02,4.63-15.01.06-.24.14-.41.05-.66h-10.28c-.31,0-.28-.4-.13-.6l17.74-23.12c.31-.15.55.01.45.35l-4.73,15.28.05.38Z"/>
    <path class="st0" d="M702.76,557.48h10.28s.22.1.24.16l-.06.4-17.79,23.16c-.31.15-.55-.01-.45-.35,1.33-4.99,3.4-10.02,4.63-15.01.06-.24.14-.41.05-.66h-10.28c-.31,0-.28-.4-.13-.6l17.74-23.12c.31-.15.55.01.45.35l-4.73,15.28.05.38Z"/>
    <path class="st0" d="M743.93,616.3h10.28s.22.1.24.16l-.06.4-17.79,23.16c-.31.15-.55-.01-.45-.35,1.33-4.99,3.4-10.02,4.63-15.01.06-.24.14-.41.05-.66h-10.28c-.31,0-.28-.4-.13-.6l17.74-23.12c.31-.15.55.01.45.35l-4.73,15.28.05.38Z"/>
    <path class="st0" d="M760.98,565.82h10.28s.22.1.24.16l-.06.4-17.79,23.16c-.31.15-.55-.01-.45-.35,1.33-4.99,3.4-10.02,4.63-15.01.06-.24.14-.41.05-.66h-10.28c-.31,0-.28-.4-.13-.6l17.74-23.12c.31-.15.55.01.45.35l-4.73,15.28.05.38Z"/>
    <path class="st0" d="M748.76,444.21h10.28s.22.1.24.16l-.06.4-17.79,23.16c-.31.15-.55-.01-.45-.35,1.33-4.99,3.4-10.02,4.63-15.01.06-.24.14-.41.05-.66h-10.28c-.31,0-.28-.4-.13-.6l17.74-23.12c.31-.15.55.01.45.35l-4.73,15.28.05.38Z"/>
    <path class="st0" d="M697.11,466.34h10.28s.22.1.24.16l-.06.4-17.79,23.16c-.31.15-.55-.01-.45-.35,1.33-4.99,3.4-10.02,4.63-15.01.06-.24.14-.41.05-.66h-10.28c-.31,0-.28-.4-.13-.6l17.74-23.12c.31-.15.55.01.45.35l-4.73,15.28.05.38Z"/>
    <path class="st0" d="M692.55,67.97h10.28s.22.1.24.16l-.06.4-17.79,23.16c-.31.15-.55-.01-.45-.35,1.33-4.99,3.4-10.02,4.63-15.01.06-.24.14-.41.05-.66h-10.28c-.31,0-.28-.4-.13-.6l17.74-23.12c.31-.15.55.01.45.35l-4.73,15.28.05.38Z"/>
    <path class="st0" d="M627.19,100.72h10.28s.22.1.24.16l-.06.4-17.79,23.16c-.31.15-.55-.01-.45-.35,1.33-4.99,3.4-10.02,4.63-15.01.06-.24.14-.41.05-.66h-10.28c-.31,0-.28-.4-.13-.6l17.74-23.12c.31-.15.55.01.45.35l-4.73,15.28.05.38Z"/>
    <path class="st0" d="M590.34,28.26h10.28s.22.1.24.16l-.06.4-17.79,23.16c-.31.15-.55-.01-.45-.35,1.33-4.99,3.4-10.02,4.63-15.01.06-.24.14-.41.05-.66h-10.28c-.31,0-.28-.4-.13-.6l17.74-23.12c.31-.15.55.01.45.35l-4.73,15.28.05.38Z"/>
    <path class="st0" d="M724.99,16.86h10.28s.22.1.24.16l-.06.4-17.79,23.16c-.31.15-.55-.01-.45-.35,1.33-4.99,3.4-10.02,4.63-15.01.06-.24.14-.41.05-.66h-10.28c-.31,0-.28-.4-.13-.6l17.74-23.12c.31-.15.55.01.45.35l-4.73,15.28.05.38Z"/>
    <path class="st0" d="M747.3,72.84h10.28s.22.1.24.16l-.06.4-17.79,23.16c-.31.15-.55-.01-.45-.35,1.33-4.99,3.4-10.02,4.63-15.01.06-.24.14-.41.05-.66h-10.28c-.31,0-.28-.4-.13-.6l17.74-23.12c.31-.15.55.01.45.35l-4.73,15.28.05.38Z"/>
    <path class="st0" d="M762.5,204.07h10.28s.22.1.24.16l-.06.4-17.79,23.16c-.31.15-.55-.01-.45-.35,1.33-4.99,3.4-10.02,4.63-15.01.06-.24.14-.41.05-.66h-10.28c-.31,0-.28-.4-.13-.6l17.74-23.12c.31-.15.55.01.45.35l-4.73,15.28.05.38Z"/>
    <path class="st0" d="M507.27,36.79h10.28s.22.1.24.16l-.06.4-17.79,23.16c-.31.15-.55-.01-.45-.35,1.33-4.99,3.4-10.02,4.63-15.01.06-.24.14-.41.05-.66h-10.28c-.31,0-.28-.4-.13-.6l17.74-23.12c.31-.15.55.01.45.35l-4.73,15.28.05.38Z"/>
    <path class="st0" d="M244.46,21.1h10.28s.22.1.24.16l-.06.4-17.79,23.16c-.31.15-.55-.01-.45-.35,1.33-4.99,3.4-10.02,4.63-15.01.06-.24.14-.41.05-.66h-10.28c-.31,0-.28-.4-.13-.6l17.74-23.12c.31-.15.55.01.45.35l-4.73,15.28.05.38Z"/>
    <path class="st0" d="M197.51,116.4h10.28s.22.1.24.16l-.06.4-17.79,23.16c-.31.15-.55-.01-.45-.35,1.33-4.99,3.4-10.02,4.63-15.01.06-.24.14-.41.05-.66h-10.28c-.31,0-.28-.4-.13-.6l17.74-23.12c.31-.15.55.01.45.35l-4.73,15.28.05.38Z"/>
    <path class="st0" d="M183.77,55.99h10.28s.22.1.24.16l-.06.4-17.79,23.16c-.31.15-.55-.01-.45-.35,1.33-4.99,3.4-10.02,4.63-15.01.06-.24.14-.41.05-.66h-10.28c-.31,0-.28-.4-.13-.6l17.74-23.12c.31-.15.55.01.45.35l-4.73,15.28.05.38Z"/>
    <path class="st0" d="M149.93,26.79h10.28s.22.1.24.16l-.06.4-17.79,23.16c-.31.15-.55-.01-.45-.35,1.33-4.99,3.4-10.02,4.63-15.01.06-.24.14-.41.05-.66h-10.28c-.31,0-.28-.4-.13-.6l17.74-23.12c.31-.15.55.01.45.35l-4.73,15.28.05.38Z"/>
    <path class="st0" d="M84.68,21.1h10.28s.22.1.24.16l-.06.4-17.79,23.16c-.31.15-.55-.01-.45-.35,1.33-4.99,3.4-10.02,4.63-15.01.06-.24.14-.41.05-.66h-10.28c-.31,0-.28-.4-.13-.6l17.74-23.12c.31-.15.55.01.45.35l-4.73,15.28.05.38Z"/>
    <path class="st0" d="M41.87,48.05h10.28s.22.1.24.16l-.06.4-17.79,23.16c-.31.15-.55-.01-.45-.35,1.33-4.99,3.4-10.02,4.63-15.01.06-.24.14-.41.05-.66h-10.28c-.31,0-.28-.4-.13-.6l17.74-23.12c.31-.15.55.01.45.35l-4.73,15.28.05.38Z"/>
    <path class="st0" d="M18.48,109.91h10.28s.22.1.24.16l-.06.4-17.79,23.16c-.31.15-.55-.01-.45-.35,1.33-4.99,3.4-10.02,4.63-15.01.06-.24.14-.41.05-.66H5.1c-.31,0-.28-.4-.13-.6l17.74-23.12c.31-.15.55.01.45.35l-4.73,15.28.05.38Z"/>
    <path class="st0" d="M65.58,181.81h10.28s.22.1.24.16l-.06.4-17.79,23.16c-.31.15-.55-.01-.45-.35,1.33-4.99,3.4-10.02,4.63-15.01.06-.24.14-.41.05-.66h-10.28c-.31,0-.28-.4-.13-.6l17.74-23.12c.31-.15.55.01.45.35l-4.73,15.28.05.38Z"/>
    <path class="st0" d="M121.31,162.48h10.28s.22.1.24.16l-.06.4-17.79,23.16c-.31.15-.55-.01-.45-.35,1.33-4.99,3.4-10.02,4.63-15.01.06-.24.14-.41.05-.66h-10.28c-.31,0-.28-.4-.13-.6l17.74-23.12c.31-.15.55.01.45.35l-4.73,15.28.05.38Z"/>
    <path class="st0" d="M93.37,244.14h10.28s.22.1.24.16l-.06.4-17.79,23.16c-.31.15-.55-.01-.45-.35,1.33-4.99,3.4-10.02,4.63-15.01.06-.24.14-.41.05-.66h-10.28c-.31,0-.28-.4-.13-.6l17.74-23.12c.31-.15.55.01.45.35l-4.73,15.28.05.38Z"/>
    <path class="st0" d="M61.51,291.75h10.28s.22.1.24.16l-.06.4-17.79,23.16c-.31.15-.55-.01-.45-.35,1.33-4.99,3.4-10.02,4.63-15.01.06-.24.14-.41.05-.66h-10.28c-.31,0-.28-.4-.13-.6l17.74-23.12c.31-.15.55.01.45.35l-4.73,15.28.05.38Z"/>
    <path class="st0" d="M72.6,374.37h10.28s.22.1.24.16l-.06.4-17.79,23.16c-.31.15-.55-.01-.45-.35,1.33-4.99,3.4-10.02,4.63-15.01.06-.24.14-.41.05-.66h-10.28c-.31,0-.28-.4-.13-.6l17.74-23.12c.31-.15.55.01.45.35l-4.73,15.28.05.38Z"/>
    <path class="st0" d="M111.73,417.51h10.28s.22.1.24.16l-.06.4-17.79,23.16c-.31.15-.55-.01-.45-.35,1.33-4.99,3.4-10.02,4.63-15.01.06-.24.14-.41.05-.66h-10.28c-.31,0-.28-.4-.13-.6l17.74-23.12c.31-.15.55.01.45.35l-4.73,15.28.05.38Z"/>
    <path class="st0" d="M37.97,524.38h10.28s.22.1.24.16l-.06.4-17.79,23.16c-.31.15-.55-.01-.45-.35,1.33-4.99,3.4-10.02,4.63-15.01.06-.24.14-.41.05-.66h-10.28c-.31,0-.28-.4-.13-.6l17.74-23.12c.31-.15.55.01.45.35l-4.73,15.28.05.38Z"/>
    <path class="st0" d="M55.7,436.49h10.28s.22.1.24.16l-.06.4-17.79,23.16c-.31.15-.55-.01-.45-.35,1.33-4.99,3.4-10.02,4.63-15.01.06-.24.14-.41.05-.66h-10.28c-.31,0-.28-.4-.13-.6l17.74-23.12c.31-.15.55.01.45.35l-4.73,15.28.05.38Z"/>
    <path class="st0" d="M12.23,373.51h10.28s.22.1.24.16l-.06.4-17.79,23.16c-.31.15-.55-.01-.45-.35,1.33-4.99,3.4-10.02,4.63-15.01.06-.24.14-.41.05-.66H-1.16c-.31,0-.28-.4-.13-.6l17.74-23.12c.31-.15.55.01.45.35l-4.73,15.28.05.38Z"/>
    <path class="st0" d="M25.9,303.55h10.28s.22.1.24.16l-.06.4-17.79,23.16c-.31.15-.55-.01-.45-.35,1.33-4.99,3.4-10.02,4.63-15.01.06-.24.14-.41.05-.66h-10.28c-.31,0-.28-.4-.13-.6l17.74-23.12c.31-.15.55.01.45.35l-4.73,15.28.05.38Z"/>
    <path class="st0" d="M19.67,225.31h10.28s.22.1.24.16l-.06.4-17.79,23.16c-.31.15-.55-.01-.45-.35,1.33-4.99,3.4-10.02,4.63-15.01.06-.24.14-.41.05-.66H6.28c-.31,0-.28-.4-.13-.6l17.74-23.12c.31-.15.55.01.45.35l-4.73,15.28.05.38Z"/>
    <path class="st0" d="M19.67,581.75h10.28s.22.1.24.16l-.06.4-17.79,23.16c-.31.15-.55-.01-.45-.35,1.33-4.99,3.4-10.02,4.63-15.01.06-.24.14-.41.05-.66H6.28c-.31,0-.28-.4-.13-.6l17.74-23.12c.31-.15.55.01.45.35l-4.73,15.28.05.38Z"/>
    <path class="st0" d="M92.74,705.8h10.28s.22.1.24.16l-.06.4-17.79,23.16c-.31.15-.55-.01-.45-.35,1.33-4.99,3.4-10.02,4.63-15.01.06-.24.14-.41.05-.66h-10.28c-.31,0-.28-.4-.13-.6l17.74-23.12c.31-.15.55.01.45.35l-4.73,15.28.05.38Z"/>
    <path class="st0" d="M141.45,705.8h10.28s.22.1.24.16l-.06.4-17.79,23.16c-.31.15-.55-.01-.45-.35,1.33-4.99,3.4-10.02,4.63-15.01.06-.24.14-.41.05-.66h-10.28c-.31,0-.28-.4-.13-.6l17.74-23.12c.31-.15.55.01.45.35l-4.73,15.28.05.38Z"/>
    <path class="st0" d="M180.11,782.41h10.28s.22.1.24.16l-.06.4-17.79,23.16c-.31.15-.55-.01-.45-.35,1.33-4.99,3.4-10.02,4.63-15.01.06-.24.14-.41.05-.66h-10.28c-.31,0-.28-.4-.13-.6l17.74-23.12c.31-.15.55.01.45.35l-4.73,15.28.05.38Z"/>
    <path class="st0" d="M115.5,793.49h10.28s.22.1.24.16l-.06.4-17.79,23.16c-.31.15-.55-.01-.45-.35,1.33-4.99,3.4-10.02,4.63-15.01.06-.24.14-.41.05-.66h-10.28c-.31,0-.28-.4-.13-.6l17.74-23.12c.31-.15.55.01.45.35l-4.73,15.28.05.38Z"/>
    <path class="st0" d="M192.81,837.81h10.28s.22.1.24.16l-.06.4-17.79,23.16c-.31.15-.55-.01-.45-.35,1.33-4.99,3.4-10.02,4.63-15.01.06-.24.14-.41.05-.66h-10.28c-.31,0-.28-.4-.13-.6l17.74-23.12c.31-.15.55.01.45.35l-4.73,15.28.05.38Z"/>
    <path class="st0" d="M159.17,917.73l10.28-.25s.22.09.24.15l-.05.4-17.22,23.59c-.3.16-.55,0-.46-.34,1.2-5.02,3.15-10.1,4.26-15.12.05-.24.13-.42.03-.66l-10.28.25c-.31,0-.29-.4-.14-.59l17.16-23.55c.3-.16.55,0,.46.34l-4.35,15.4.06.38Z"/>
    <path class="st0" d="M101.97,897.67l10.28-.25s.22.09.24.15l-.05.4-17.22,23.59c-.3.16-.55,0-.46-.34,1.2-5.02,3.15-10.1,4.26-15.12.05-.24.13-.42.03-.66l-10.28.25c-.31,0-.29-.4-.14-.59l17.16-23.55c.3-.16.55,0,.46.34l-4.35,15.4.06.38Z"/>
    <path class="st0" d="M194.27,959.78l10.28-.25s.22.09.24.15l-.05.4-17.22,23.59c-.3.16-.55,0-.46-.34,1.2-5.02,3.15-10.1,4.26-15.12.05-.24.13-.42.03-.66l-10.28.25c-.31,0-.29-.4-.14-.59l17.16-23.55c.3-.16.55,0,.46.34l-4.35,15.4.06.38Z"/>
    <path class="st0" d="M358.41,953.5l10.28-.25s.22.09.24.15l-.05.4-17.22,23.59c-.3.16-.55,0-.46-.34,1.2-5.02,3.15-10.1,4.26-15.12.05-.24.13-.42.03-.66l-10.28.25c-.31,0-.29-.4-.14-.59l17.16-23.55c.3-.16.55,0,.46.34l-4.35,15.4.06.38Z"/>
    <path class="st0" d="M87.16,967.26l10.28-.25s.22.09.24.15l-.05.4-17.22,23.59c-.3.16-.55,0-.46-.34,1.2-5.02,3.15-10.1,4.26-15.12.05-.24.13-.42.03-.66l-10.28.25c-.31,0-.29-.4-.14-.59l17.16-23.55c.3-.16.55,0,.46.34l-4.35,15.4.06.38Z"/>
    <path class="st0" d="M14.32,950.48l10.28-.25s.22.09.24.15l-.05.4-17.22,23.59c-.3.16-.55,0-.46-.34,1.2-5.02,3.15-10.1,4.26-15.12.05-.24.13-.42.03-.66l-10.28.25c-.31,0-.29-.4-.14-.59l17.16-23.55c.3-.16.55,0,.46.34l-4.35,15.4.06.38Z"/>
    <path class="st0" d="M34.51,897.67l10.28-.25s.22.09.24.15l-.05.4-17.22,23.59c-.3.16-.55,0-.46-.34,1.2-5.02,3.15-10.1,4.26-15.12.05-.24.13-.42.03-.66l-10.28.25c-.31,0-.29-.4-.14-.59l17.16-23.55c.3-.16.55,0,.46.34l-4.35,15.4.06.38Z"/>
    <path class="st0" d="M81.2,837.77l10.28-.25s.22.09.24.15l-.05.4-17.22,23.59c-.3.16-.55,0-.46-.34,1.2-5.02,3.15-10.1,4.26-15.12.05-.24.13-.42.03-.66l-10.28.25c-.31,0-.29-.4-.14-.59l17.16-23.55c.3-.16.55,0,.46.34l-4.35,15.4.06.38Z"/>
    <path class="st0" d="M43.53,815.95l10.28-.25s.22.09.24.15l-.05.4-17.22,23.59c-.3.16-.55,0-.46-.34,1.2-5.02,3.15-10.1,4.26-15.12.05-.24.13-.42.03-.66l-10.28.25c-.31,0-.29-.4-.14-.59l17.16-23.55c.3-.16.55,0,.46.34l-4.35,15.4.06.38Z"/>
    <path class="st0" d="M61.42,750.17l10.28-.25s.22.09.24.15l-.05.4-17.22,23.59c-.3.16-.55,0-.46-.34,1.2-5.02,3.15-10.1,4.26-15.12.05-.24.13-.42.03-.66l-10.28.25c-.31,0-.29-.4-.14-.59l17.16-23.55c.3-.16.55,0,.46.34l-4.35,15.4.06.38Z"/>
    <path class="st0" d="M25.26,699.99l10.28-.25s.22.09.24.15l-.05.4-17.22,23.59c-.3.16-.55,0-.46-.34,1.2-5.02,3.15-10.1,4.26-15.12.05-.24.13-.42.03-.66l-10.28.25c-.31,0-.29-.4-.14-.59l17.16-23.55c.3-.16.55,0,.46.34l-4.35,15.4.06.38Z"/>
    <path class="st0" d="M12.76,793.15l10.28-.25s.22.09.24.15l-.05.4-17.22,23.59c-.3.16-.55,0-.46-.34,1.2-5.02,3.15-10.1,4.26-15.12.05-.24.13-.42.03-.66l-10.28.25c-.31,0-.29-.4-.14-.59l17.16-23.55c.3-.16.55,0,.46.34l-4.35,15.4.06.38Z"/>
  </g>
  <g id="Layer_3">
    <path class="st0" d="M440.2,497.59h10.28s.22.1.24.16l-.06.4-17.79,23.16c-.31.15-.55-.01-.45-.35,1.33-4.99,3.4-10.02,4.63-15.01.06-.24.14-.41.05-.66h-10.28c-.31,0-.28-.4-.13-.6l17.74-23.12c.31-.15.55.01.45.35l-4.73,15.28.05.38Z"/>
    <path class="st0" d="M536.5,484.96h10.28s.22.1.24.16l-.06.4-17.79,23.16c-.31.15-.55-.01-.45-.35,1.33-4.99,3.4-10.02,4.63-15.01.06-.24.14-.41.05-.66h-10.28c-.31,0-.28-.4-.13-.6l17.74-23.12c.31-.15.55.01.45.35l-4.73,15.28.05.38Z"/>
    <path class="st0" d="M502.42,406.4h10.28s.22.1.24.16l-.06.4-17.79,23.16c-.31.15-.55-.01-.45-.35,1.33-4.99,3.4-10.02,4.63-15.01.06-.24.14-.41.05-.66h-10.28c-.31,0-.28-.4-.13-.6l17.74-23.12c.31-.15.55.01.45.35l-4.73,15.28.05.38Z"/>
    <path class="st0" d="M416.11,345.56h10.28s.22.1.24.16l-.06.4-17.79,23.16c-.31.15-.55-.01-.45-.35,1.33-4.99,3.4-10.02,4.63-15.01.06-.24.14-.41.05-.66h-10.28c-.31,0-.28-.4-.13-.6l17.74-23.12c.31-.15.55.01.45.35l-4.73,15.28.05.38Z"/>
    <path class="st0" d="M361.88,308.85h10.28s.22.1.24.16l-.06.4-17.79,23.16c-.31.15-.55-.01-.45-.35,1.33-4.99,3.4-10.02,4.63-15.01.06-.24.14-.41.05-.66h-10.28c-.31,0-.28-.4-.13-.6l17.74-23.12c.31-.15.55.01.45.35l-4.73,15.28.05.38Z"/>
    <path class="st0" d="M187.63,359.22h10.28s.22.1.24.16l-.06.4-17.79,23.16c-.31.15-.55-.01-.45-.35,1.33-4.99,3.4-10.02,4.63-15.01.06-.24.14-.41.05-.66h-10.28c-.31,0-.28-.4-.13-.6l17.74-23.12c.31-.15.55.01.45.35l-4.73,15.28.05.38Z"/>
    <path class="st0" d="M270.09,201.23h10.28s.22.1.24.16l-.06.4-17.79,23.16c-.31.15-.55-.01-.45-.35,1.33-4.99,3.4-10.02,4.63-15.01.06-.24.14-.41.05-.66h-10.28c-.31,0-.28-.4-.13-.6l17.74-23.12c.31-.15.55.01.45.35l-4.73,15.28.05.38Z"/>
    <path class="st0" d="M313.22,132.9h10.28s.22.1.24.16l-.06.4-17.79,23.16c-.31.15-.55-.01-.45-.35,1.33-4.99,3.4-10.02,4.63-15.01.06-.24.14-.41.05-.66h-10.28c-.31,0-.28-.4-.13-.6l17.74-23.12c.31-.15.55.01.45.35l-4.73,15.28.05.38Z"/>
    <path class="st1" d="M273.59,114.37h10.28s.22.1.24.16l-.06.4-17.79,23.16c-.31.15-.55-.01-.45-.35,1.33-4.99,3.4-10.02,4.63-15.01.06-.24.14-.41.05-.66h-10.28c-.31,0-.28-.4-.13-.6l17.74-23.12c.31-.15.55.01.45.35l-4.73,15.28.05.38Z"/>
    <path class="st0" d="M273.59,52.92h10.28s.22.1.24.16l-.06.4-17.79,23.16c-.31.15-.55-.01-.45-.35,1.33-4.99,3.4-10.02,4.63-15.01.06-.24.14-.41.05-.66h-10.28c-.31,0-.28-.4-.13-.6l17.74-23.12c.31-.15.55.01.45.35l-4.73,15.28.05.38Z"/>
    <path class="st0" d="M365.56,20.65h10.28s.22.1.24.16l-.06.4-17.79,23.16c-.31.15-.55-.01-.45-.35,1.33-4.99,3.4-10.02,4.63-15.01.06-.24.14-.41.05-.66h-10.28c-.31,0-.28-.4-.13-.6l17.74-23.12c.31-.15.55.01.45.35l-4.73,15.28.05.38Z"/>
    <path class="st0" d="M37.35,161.85h10.28s.22.1.24.16l-.06.4-17.79,23.16c-.31.15-.55-.01-.45-.35,1.33-4.99,3.4-10.02,4.63-15.01.06-.24.14-.41.05-.66h-10.28c-.31,0-.28-.4-.13-.6l17.74-23.12c.31-.15.55.01.45.35l-4.73,15.28.05.38Z"/>
    <path class="st0" d="M26.4,424.29h10.28s.22.1.24.16l-.06.4-17.79,23.16c-.31.15-.55-.01-.45-.35,1.33-4.99,3.4-10.02,4.63-15.01.06-.24.14-.41.05-.66h-10.28c-.31,0-.28-.4-.13-.6l17.74-23.12c.31-.15.55.01.45.35l-4.73,15.28.05.38Z"/>
    <path class="st0" d="M77.65,497.59h10.28s.22.1.24.16l-.06.4-17.79,23.16c-.31.15-.55-.01-.45-.35,1.33-4.99,3.4-10.02,4.63-15.01.06-.24.14-.41.05-.66h-10.28c-.31,0-.28-.4-.13-.6l17.74-23.12c.31-.15.55.01.45.35l-4.73,15.28.05.38Z"/>
    <path class="st0" d="M12.86,477.67h10.28s.22.1.24.16l-.06.4-17.79,23.16c-.31.15-.55-.01-.45-.35,1.33-4.99,3.4-10.02,4.63-15.01.06-.24.14-.41.05-.66H-.53c-.31,0-.28-.4-.13-.6l17.74-23.12c.31-.15.55.01.45.35l-4.73,15.28.05.38Z"/>
    <path class="st0" d="M83.89,575.01h10.28s.22.1.24.16l-.06.4-17.79,23.16c-.31.15-.55-.01-.45-.35,1.33-4.99,3.4-10.02,4.63-15.01.06-.24.14-.41.05-.66h-10.28c-.31,0-.28-.4-.13-.6l17.74-23.12c.31-.15.55.01.45.35l-4.73,15.28.05.38Z"/>
    <path class="st0" d="M33.97,632.57h10.28s.22.1.24.16l-.06.4-17.79,23.16c-.31.15-.55-.01-.45-.35,1.33-4.99,3.4-10.02,4.63-15.01.06-.24.14-.41.05-.66h-10.28c-.31,0-.28-.4-.13-.6l17.74-23.12c.31-.15.55.01.45.35l-4.73,15.28.05.38Z"/>
    <path class="st0" d="M69.43,654.83h10.28s.22.1.24.16l-.06.4-17.79,23.16c-.31.15-.55-.01-.45-.35,1.33-4.99,3.4-10.02,4.63-15.01.06-.24.14-.41.05-.66h-10.28c-.31,0-.28-.4-.13-.6l17.74-23.12c.31-.15.55.01.45.35l-4.73,15.28.05.38Z"/>
    <path class="st0" d="M119.5,640.05h10.28s.22.1.24.16l-.06.4-17.79,23.16c-.31.15-.55-.01-.45-.35,1.33-4.99,3.4-10.02,4.63-15.01.06-.24.14-.41.05-.66h-10.28c-.31,0-.28-.4-.13-.6l17.74-23.12c.31-.15.55.01.45.35l-4.73,15.28.05.38Z"/>
    <path class="st0" d="M179.76,659.27h10.28s.22.1.24.16l-.06.4-17.79,23.16c-.31.15-.55-.01-.45-.35,1.33-4.99,3.4-10.02,4.63-15.01.06-.24.14-.41.05-.66h-10.28c-.31,0-.28-.4-.13-.6l17.74-23.12c.31-.15.55.01.45.35l-4.73,15.28.05.38Z"/>
    <path class="st1" d="M187.14,735.21h10.28s.22.1.24.16l-.06.4-17.79,23.16c-.31.15-.55-.01-.45-.35,1.33-4.99,3.4-10.02,4.63-15.01.06-.24.14-.41.05-.66h-10.28c-.31,0-.28-.4-.13-.6l17.74-23.12c.31-.15.55.01.45.35l-4.73,15.28.05.38Z"/>
    <path class="st0" d="M279.46,667.1h10.28s.22.1.24.16l-.06.4-17.79,23.16c-.31.15-.55-.01-.45-.35,1.33-4.99,3.4-10.02,4.63-15.01.06-.24.14-.41.05-.66h-10.28c-.31,0-.28-.4-.13-.6l17.74-23.12c.31-.15.55.01.45.35l-4.73,15.28.05.38Z"/>
    <path class="st0" d="M281.65,570.04h10.28s.22.1.24.16l-.06.4-17.79,23.16c-.31.15-.55-.01-.45-.35,1.33-4.99,3.4-10.02,4.63-15.01.06-.24.14-.41.05-.66h-10.28c-.31,0-.28-.4-.13-.6l17.74-23.12c.31-.15.55.01.45.35l-4.73,15.28.05.38Z"/>
    <path class="st0" d="M240.25,523.05h10.28s.22.1.24.16l-.06.4-17.79,23.16c-.31.15-.55-.01-.45-.35,1.33-4.99,3.4-10.02,4.63-15.01.06-.24.14-.41.05-.66h-10.28c-.31,0-.28-.4-.13-.6l17.74-23.12c.31-.15.55.01.45.35l-4.73,15.28.05.38Z"/>
    <path class="st0" d="M187.14,523.05h10.28s.22.1.24.16l-.06.4-17.79,23.16c-.31.15-.55-.01-.45-.35,1.33-4.99,3.4-10.02,4.63-15.01.06-.24.14-.41.05-.66h-10.28c-.31,0-.28-.4-.13-.6l17.74-23.12c.31-.15.55.01.45.35l-4.73,15.28.05.38Z"/>
    <path class="st0" d="M319.97,917.77h10.28s.22.1.24.16l-.06.4-17.79,23.16c-.31.15-.55-.01-.45-.35,1.33-4.99,3.4-10.02,4.63-15.01.06-.24.14-.41.05-.66h-10.28c-.31,0-.28-.4-.13-.6l17.74-23.12c.31-.15.55.01.45.35l-4.73,15.28.05.38Z"/>
    <path class="st0" d="M493.87,933.48h10.28s.22.1.24.16l-.06.4-17.79,23.16c-.31.15-.55-.01-.45-.35,1.33-4.99,3.4-10.02,4.63-15.01.06-.24.14-.41.05-.66h-10.28c-.31,0-.28-.4-.13-.6l17.74-23.12c.31-.15.55.01.45.35l-4.73,15.28.05.38Z"/>
    <path class="st0" d="M553.2,837.33h10.28s.22.1.24.16l-.06.4-17.79,23.16c-.31.15-.55-.01-.45-.35,1.33-4.99,3.4-10.02,4.63-15.01.06-.24.14-.41.05-.66h-10.28c-.31,0-.28-.4-.13-.6l17.74-23.12c.31-.15.55.01.45.35l-4.73,15.28.05.38Z"/>
    <path class="st0" d="M597.08,907.47h10.28s.22.1.24.16l-.06.4-17.79,23.16c-.31.15-.55-.01-.45-.35,1.33-4.99,3.4-10.02,4.63-15.01.06-.24.14-.41.05-.66h-10.28c-.31,0-.28-.4-.13-.6l17.74-23.12c.31-.15.55.01.45.35l-4.73,15.28.05.38Z"/>
    <path class="st0" d="M677.66,928.11h10.28s.22.1.24.16l-.06.4-17.79,23.16c-.31.15-.55-.01-.45-.35,1.33-4.99,3.4-10.02,4.63-15.01.06-.24.14-.41.05-.66h-10.28c-.31,0-.28-.4-.13-.6l17.74-23.12c.31-.15.55.01.45.35l-4.73,15.28.05.38Z"/>
    <path class="st0" d="M585.65,793.9h10.28s.22.1.24.16l-.06.4-17.79,23.16c-.31.15-.55-.01-.45-.35,1.33-4.99,3.4-10.02,4.63-15.01.06-.24.14-.41.05-.66h-10.28c-.31,0-.28-.4-.13-.6l17.74-23.12c.31-.15.55.01.45.35l-4.73,15.28.05.38Z"/>
    <path class="st0" d="M597.08,651.29h10.28s.22.1.24.16l-.06.4-17.79,23.16c-.31.15-.55-.01-.45-.35,1.33-4.99,3.4-10.02,4.63-15.01.06-.24.14-.41.05-.66h-10.28c-.31,0-.28-.4-.13-.6l17.74-23.12c.31-.15.55.01.45.35l-4.73,15.28.05.38Z"/>
    <path class="st0" d="M645.86,596.38h10.28s.22.1.24.16l-.06.4-17.79,23.16c-.31.15-.55-.01-.45-.35,1.33-4.99,3.4-10.02,4.63-15.01.06-.24.14-.41.05-.66h-10.28c-.31,0-.28-.4-.13-.6l17.74-23.12c.31-.15.55.01.45.35l-4.73,15.28.05.38Z"/>
    <path class="st0" d="M744.55,523.05h10.28s.22.1.24.16l-.06.4-17.79,23.16c-.31.15-.55-.01-.45-.35,1.33-4.99,3.4-10.02,4.63-15.01.06-.24.14-.41.05-.66h-10.28c-.31,0-.28-.4-.13-.6l17.74-23.12c.31-.15.55.01.45.35l-4.73,15.28.05.38Z"/>
    <path class="st1" d="M642.48,497.67h10.28s.22.1.24.16l-.06.4-17.79,23.16c-.31.15-.55-.01-.45-.35,1.33-4.99,3.4-10.02,4.63-15.01.06-.24.14-.41.05-.66h-10.28c-.31,0-.28-.4-.13-.6l17.74-23.12c.31-.15.55.01.45.35l-4.73,15.28.05.38Z"/>
    <path class="st0" d="M489.11,687.02h10.28s.22.1.24.16l-.06.4-17.79,23.16c-.31.15-.55-.01-.45-.35,1.33-4.99,3.4-10.02,4.63-15.01.06-.24.14-.41.05-.66h-10.28c-.31,0-.28-.4-.13-.6l17.74-23.12c.31-.15.55.01.45.35l-4.73,15.28.05.38Z"/>
    <path class="st0" d="M461.81,632.04h10.28s.22.1.24.16l-.06.4-17.79,23.16c-.31.15-.55-.01-.45-.35,1.33-4.99,3.4-10.02,4.63-15.01.06-.24.14-.41.05-.66h-10.28c-.31,0-.28-.4-.13-.6l17.74-23.12c.31-.15.55.01.45.35l-4.73,15.28.05.38Z"/>
    <path class="st0" d="M714.83,406.4h10.28s.22.1.24.16l-.06.4-17.79,23.16c-.31.15-.55-.01-.45-.35,1.33-4.99,3.4-10.02,4.63-15.01.06-.24.14-.41.05-.66h-10.28c-.31,0-.28-.4-.13-.6l17.74-23.12c.31-.15.55.01.45.35l-4.73,15.28.05.38Z"/>
    <path class="st0" d="M754.43,374.37h10.28s.22.1.24.16l-.06.4-17.79,23.16c-.31.15-.55-.01-.45-.35,1.33-4.99,3.4-10.02,4.63-15.01.06-.24.14-.41.05-.66h-10.28c-.31,0-.28-.4-.13-.6l17.74-23.12c.31-.15.55.01.45.35l-4.73,15.28.05.38Z"/>
    <path class="st0" d="M776.45,264.06h10.28s.22.1.24.16l-.06.4-17.79,23.16c-.31.15-.55-.01-.45-.35,1.33-4.99,3.4-10.02,4.63-15.01.06-.24.14-.41.05-.66h-10.28c-.31,0-.28-.4-.13-.6l17.74-23.12c.31-.15.55.01.45.35l-4.73,15.28.05.38Z"/>
    <path class="st0" d="M654.56,285.29h10.28s.22.1.24.16l-.06.4-17.79,23.16c-.31.15-.55-.01-.45-.35,1.33-4.99,3.4-10.02,4.63-15.01.06-.24.14-.41.05-.66h-10.28c-.31,0-.28-.4-.13-.6l17.74-23.12c.31-.15.55.01.45.35l-4.73,15.28.05.38Z"/>
    <path class="st0" d="M734.87,146.43h10.28s.22.1.24.16l-.06.4-17.79,23.16c-.31.15-.55-.01-.45-.35,1.33-4.99,3.4-10.02,4.63-15.01.06-.24.14-.41.05-.66h-10.28c-.31,0-.28-.4-.13-.6l17.74-23.12c.31-.15.55.01.45.35l-4.73,15.28.05.38Z"/>
    <path class="st0" d="M637.95,25.3h10.28s.22.1.24.16l-.06.4-17.79,23.16c-.31.15-.55-.01-.45-.35,1.33-4.99,3.4-10.02,4.63-15.01.06-.24.14-.41.05-.66h-10.28c-.31,0-.28-.4-.13-.6l17.74-23.12c.31-.15.55.01.45.35l-4.73,15.28.05.38Z"/>
    <path class="st0" d="M557.9,104.88h10.28s.22.1.24.16l-.06.4-17.79,23.16c-.31.15-.55-.01-.45-.35,1.33-4.99,3.4-10.02,4.63-15.01.06-.24.14-.41.05-.66h-10.28c-.31,0-.28-.4-.13-.6l17.74-23.12c.31-.15.55.01.45.35l-4.73,15.28.05.38Z"/>
    <path class="st0" d="M518.5,252.62h10.28s.22.1.24.16l-.06.4-17.79,23.16c-.31.15-.55-.01-.45-.35,1.33-4.99,3.4-10.02,4.63-15.01.06-.24.14-.41.05-.66h-10.28c-.31,0-.28-.4-.13-.6l17.74-23.12c.31-.15.55.01.45.35l-4.73,15.28.05.38Z"/>
    <path class="st0" d="M501.47,193.45h10.28s.22.1.24.16l-.06.4-17.79,23.16c-.31.15-.55-.01-.45-.35,1.33-4.99,3.4-10.02,4.63-15.01.06-.24.14-.41.05-.66h-10.28c-.31,0-.28-.4-.13-.6l17.74-23.12c.31-.15.55.01.45.35l-4.73,15.28.05.38Z"/>
    <path class="st0" d="M440.48,25.3h10.28s.22.1.24.16l-.06.4-17.79,23.16c-.31.15-.55-.01-.45-.35,1.33-4.99,3.4-10.02,4.63-15.01.06-.24.14-.41.05-.66h-10.28c-.31,0-.28-.4-.13-.6l17.74-23.12c.31-.15.55.01.45.35l-4.73,15.28.05.38Z"/>
    <path class="st0" d="M102.06,92.69h10.28s.22.1.24.16l-.06.4-17.79,23.16c-.31.15-.55-.01-.45-.35,1.33-4.99,3.4-10.02,4.63-15.01.06-.24.14-.41.05-.66h-10.28c-.31,0-.28-.4-.13-.6l17.74-23.12c.31-.15.55.01.45.35l-4.73,15.28.05.38Z"/>
    <path class="st0" d="M55.61,92.69h10.28s.22.1.24.16l-.06.4-17.79,23.16c-.31.15-.55-.01-.45-.35,1.33-4.99,3.4-10.02,4.63-15.01.06-.24.14-.41.05-.66h-10.28c-.31,0-.28-.4-.13-.6l17.74-23.12c.31-.15.55.01.45.35l-4.73,15.28.05.38Z"/>
  </g>
</svg>