<?xml version="1.0" encoding="UTF-8"?>
<svg id="Layer_2" xmlns="http://www.w3.org/2000/svg" version="1.1" viewBox="0 0 2021 2046">
  <!-- Generator: Adobe Illustrator 29.3.1, SVG Export Plug-In . SVG Version: 2.1.0 Build 151)  -->
  <defs>
    <style>
      .st0 {
        fill: #ccc;
      }
    </style>
  </defs>
  <path class="st0" d="M847.09,1093.76h10.28s.22.1.24.16l-.06.4-17.79,23.16c-.31.15-.55-.01-.45-.35,1.33-4.99,3.4-10.02,4.63-15.01.06-.24.14-.41.05-.66h-10.28c-.31,0-.28-.4-.13-.6l17.74-23.12c.31-.15.55.01.45.35l-4.73,15.28.05.38Z"/>
  <path class="st0" d="M1165.28,1562.9h10.28s.22.1.24.16l-.06.4-17.79,23.16c-.31.15-.55-.01-.45-.35,1.33-4.99,3.4-10.02,4.63-15.01.06-.24.14-.41.05-.66h-10.28c-.31,0-.28-.4-.13-.6l17.74-23.12c.31-.15.55.01.45.35l-4.73,15.28.05.38Z"/>
  <path class="st0" d="M1501.67,742.76h10.28s.22.1.24.16l-.06.4-17.79,23.16c-.31.15-.55-.01-.45-.35,1.33-4.99,3.4-10.02,4.63-15.01.06-.24.14-.41.05-.66h-10.28c-.31,0-.28-.4-.13-.6l17.74-23.12c.31-.15.55.01.45.35l-4.73,15.28.05.38Z"/>
  <path class="st0" d="M1925.99,944.9h10.28s.22.1.24.16l-.06.4-17.79,23.16c-.31.15-.55-.01-.45-.35,1.33-4.99,3.4-10.02,4.63-15.01.06-.24.14-.41.05-.66h-10.28c-.31,0-.28-.4-.13-.6l17.74-23.12c.31-.15.55.01.45.35l-4.73,15.28.05.38Z"/>
  <path class="st0" d="M1096.73,457.76h10.28s.22.1.24.16l-.06.4-17.79,23.16c-.31.15-.55-.01-.45-.35,1.33-4.99,3.4-10.02,4.63-15.01.06-.24.14-.41.05-.66h-10.28c-.31,0-.28-.4-.13-.6l17.74-23.12c.31-.15.55.01.45.35l-4.73,15.28.05.38Z"/>
  <path class="st0" d="M995.29,722.84h10.28s.22.1.24.16l-.06.4-17.79,23.16c-.31.15-.55-.01-.45-.35,1.33-4.99,3.4-10.02,4.63-15.01.06-.24.14-.41.05-.66h-10.28c-.31,0-.28-.4-.13-.6l17.74-23.12c.31-.15.55.01.45.35l-4.73,15.28.05.38Z"/>
  <path class="st0" d="M656.28,272.4h10.28s.22.1.24.16l-.06.4-17.79,23.16c-.31.15-.55-.01-.45-.35,1.33-4.99,3.4-10.02,4.63-15.01.06-.24.14-.41.05-.66h-10.28c-.31,0-.28-.4-.13-.6l17.74-23.12c.31-.15.55.01.45.35l-4.73,15.28.05.38Z"/>
  <path class="st0" d="M335.92,1187.12h10.28s.22.1.24.16l-.06.4-17.79,23.16c-.31.15-.55-.01-.45-.35,1.33-4.99,3.4-10.02,4.63-15.01.06-.24.14-.41.05-.66h-10.28c-.31,0-.28-.4-.13-.6l17.74-23.12c.31-.15.55.01.45.35l-4.73,15.28.05.38Z"/>
  <path class="st0" d="M522.04,2000.87h10.28s.22.1.24.16l-.06.4-17.79,23.16c-.31.15-.55-.01-.45-.35,1.33-4.99,3.4-10.02,4.63-15.01.06-.24.14-.41.05-.66h-10.28c-.31,0-.28-.4-.13-.6l17.74-23.12c.31-.15.55.01.45.35l-4.73,15.28.05.38Z"/>
  <path class="st0" d="M29.81,751.55h10.28s.22.1.24.16l-.06.4-17.79,23.16c-.31.15-.55-.01-.45-.35,1.33-4.99,3.4-10.02,4.63-15.01.06-.24.14-.41.05-.66h-10.28c-.31,0-.28-.4-.13-.6l17.74-23.12c.31-.15.55.01.45.35l-4.73,15.28.05.38Z"/>
</svg>